<svg width="469" height="86" viewBox="0 0 469 86" fill="none" xmlns="http://www.w3.org/2000/svg">
<path d="M32.2031 69.9844C25.6094 69.9844 19.8906 68.5781 15.0469 65.7656C10.2344 62.9531 6.51562 58.9375 3.89062 53.7188C1.29688 48.4688 0 42.2188 0 34.9688V34.9219C0 27.6406 1.3125 21.4062 3.9375 16.2188C6.5625 11 10.2812 7 15.0938 4.21875C19.9062 1.40625 25.6094 0 32.2031 0C37.6719 0 42.5469 1.0625 46.8281 3.1875C51.1094 5.3125 54.5469 8.23438 57.1406 11.9531C59.7344 15.6406 61.25 19.8906 61.6875 24.7031L61.7344 25.125H47.9531L47.7656 24.3281C47.2344 21.8281 46.2812 19.6562 44.9062 17.8125C43.5312 15.9688 41.7656 14.5469 39.6094 13.5469C37.4844 12.5156 35.0156 12 32.2031 12C28.5781 12 25.4375 12.9219 22.7812 14.7656C20.125 16.6094 18.0625 19.25 16.5938 22.6875C15.1562 26.0938 14.4375 30.1562 14.4375 34.875V34.9219C14.4375 39.6719 15.1562 43.7812 16.5938 47.25C18.0625 50.6875 20.125 53.3438 22.7812 55.2188C25.4688 57.0625 28.6094 57.9844 32.2031 57.9844C34.9219 57.9844 37.3438 57.4844 39.4688 56.4844C41.625 55.4844 43.4219 54.0469 44.8594 52.1719C46.2969 50.2656 47.3125 47.9688 47.9062 45.2812L48 44.8125H61.7812L61.7344 45.3281C61.2969 50.1094 59.7656 54.3594 57.1406 58.0781C54.5469 61.7969 51.1094 64.7188 46.8281 66.8438C42.5469 68.9375 37.6719 69.9844 32.2031 69.9844ZM92.4375 69.8438C87.3438 69.8438 82.9375 68.7969 79.2188 66.7031C75.5 64.6094 72.625 61.6094 70.5938 57.7031C68.5625 53.7969 67.5469 49.125 67.5469 43.6875V43.5938C67.5469 38.1875 68.5781 33.5469 70.6406 29.6719C72.7031 25.7656 75.5938 22.7656 79.3125 20.6719C83.0312 18.5781 87.3906 17.5312 92.3906 17.5312C97.4219 17.5312 101.797 18.5781 105.516 20.6719C109.266 22.7344 112.172 25.7188 114.234 29.625C116.297 33.5 117.328 38.1562 117.328 43.5938V43.6875C117.328 49.1562 116.297 53.8438 114.234 57.75C112.203 61.6562 109.328 64.6562 105.609 66.75C101.891 68.8125 97.5 69.8438 92.4375 69.8438ZM92.4844 59.1094C94.7031 59.1094 96.625 58.5156 98.25 57.3281C99.9062 56.1094 101.172 54.3594 102.047 52.0781C102.953 49.7656 103.406 46.9688 103.406 43.6875V43.5938C103.406 40.3438 102.953 37.5781 102.047 35.2969C101.141 33.0156 99.8594 31.2812 98.2031 30.0938C96.5469 28.875 94.6094 28.2656 92.3906 28.2656C90.2031 28.2656 88.2812 28.875 86.625 30.0938C85 31.2812 83.7344 33.0156 82.8281 35.2969C81.9219 37.5781 81.4688 40.3438 81.4688 43.5938V43.6875C81.4688 46.9688 81.9062 49.7656 82.7812 52.0781C83.6875 54.3594 84.9688 56.1094 86.625 57.3281C88.2812 58.5156 90.2344 59.1094 92.4844 59.1094ZM124.406 68.8125V18.5625H138.094V27H138.375C139.406 24.125 141.156 21.8281 143.625 20.1094C146.125 18.3906 149.062 17.5312 152.438 17.5312C154.781 17.5312 156.891 17.9375 158.766 18.75C160.641 19.5625 162.219 20.7344 163.5 22.2656C164.812 23.7969 165.734 25.6719 166.266 27.8906H166.547C167.297 25.7656 168.422 23.9375 169.922 22.4062C171.453 20.8438 173.25 19.6406 175.312 18.7969C177.406 17.9531 179.688 17.5312 182.156 17.5312C185.438 17.5312 188.312 18.2344 190.781 19.6406C193.25 21.0469 195.172 23.0156 196.547 25.5469C197.922 28.0781 198.609 31.0469 198.609 34.4531V68.8125H184.922V37.875C184.922 35.9375 184.594 34.2969 183.938 32.9531C183.312 31.6094 182.391 30.5938 181.172 29.9062C179.984 29.2188 178.5 28.875 176.719 28.875C175 28.875 173.484 29.2656 172.172 30.0469C170.891 30.8281 169.891 31.9219 169.172 33.3281C168.453 34.7344 168.094 36.375 168.094 38.25V68.8125H154.922V37.4531C154.922 35.6406 154.594 34.0938 153.938 32.8125C153.281 31.5312 152.344 30.5625 151.125 29.9062C149.938 29.2188 148.5 28.875 146.812 28.875C145.094 28.875 143.578 29.2812 142.266 30.0938C140.953 30.9062 139.922 32.0312 139.172 33.4688C138.453 34.9062 138.094 36.5781 138.094 38.4844V68.8125H124.406ZM207.281 85.2188V18.5625H220.969V27.3281H221.297C222.203 25.2969 223.391 23.5469 224.859 22.0781C226.359 20.6094 228.094 19.4844 230.062 18.7031C232.062 17.9219 234.25 17.5312 236.625 17.5312C240.875 17.5312 244.531 18.5781 247.594 20.6719C250.656 22.7344 253.016 25.7188 254.672 29.625C256.328 33.5312 257.156 38.2031 257.156 43.6406V43.6875C257.156 49.125 256.328 53.7969 254.672 57.7031C253.047 61.6094 250.719 64.6094 247.688 66.7031C244.656 68.7969 241.031 69.8438 236.812 69.8438C234.438 69.8438 232.234 69.4531 230.203 68.6719C228.172 67.8906 226.406 66.7969 224.906 65.3906C223.406 63.9531 222.188 62.2344 221.25 60.2344H220.969V85.2188H207.281ZM232.125 58.5C234.406 58.5 236.375 57.9062 238.031 56.7188C239.688 55.5 240.969 53.7812 241.875 51.5625C242.781 49.3438 243.234 46.7188 243.234 43.6875V43.6406C243.234 40.5781 242.781 37.9375 241.875 35.7188C240.969 33.5 239.672 31.8125 237.984 30.6562C236.328 29.4688 234.375 28.875 232.125 28.875C229.906 28.875 227.953 29.4844 226.266 30.7031C224.578 31.8906 223.266 33.5938 222.328 35.8125C221.391 38 220.922 40.625 220.922 43.6875V43.7344C220.922 46.7344 221.391 49.3438 222.328 51.5625C223.297 53.7812 224.609 55.5 226.266 56.7188C227.953 57.9062 229.906 58.5 232.125 58.5ZM264.281 68.8125V18.5625H277.969V27.3281H278.25C279 24.2344 280.359 21.8281 282.328 20.1094C284.297 18.3906 286.75 17.5312 289.688 17.5312C290.438 17.5312 291.156 17.5781 291.844 17.6719C292.531 17.7656 293.125 17.8906 293.625 18.0469V30.0938C293.062 29.875 292.344 29.7031 291.469 29.5781C290.594 29.4219 289.656 29.3438 288.656 29.3438C286.406 29.3438 284.484 29.7812 282.891 30.6562C281.297 31.5312 280.078 32.8125 279.234 34.5C278.391 36.1875 277.969 38.25 277.969 40.6875V68.8125H264.281ZM320.531 69.8438C315.406 69.8438 311 68.7969 307.312 66.7031C303.625 64.5781 300.781 61.5625 298.781 57.6562C296.812 53.75 295.828 49.125 295.828 43.7812V43.7344C295.828 38.3906 296.812 33.7656 298.781 29.8594C300.781 25.9219 303.578 22.8906 307.172 20.7656C310.797 18.6094 315.062 17.5312 319.969 17.5312C324.875 17.5312 329.109 18.5781 332.672 20.6719C336.266 22.7344 339.031 25.6562 340.969 29.4375C342.938 33.2188 343.922 37.6406 343.922 42.7031V46.9219H302.531V38.2969H337.453L330.938 46.3594V41.1094C330.938 38.1719 330.484 35.7188 329.578 33.75C328.672 31.75 327.406 30.25 325.781 29.25C324.188 28.25 322.328 27.75 320.203 27.75C318.078 27.75 316.188 28.2656 314.531 29.2969C312.906 30.3281 311.625 31.8438 310.688 33.8438C309.781 35.8125 309.328 38.2344 309.328 41.1094V46.4062C309.328 49.1875 309.781 51.5625 310.688 53.5312C311.625 55.5 312.953 57.0156 314.672 58.0781C316.391 59.1094 318.438 59.625 320.812 59.625C322.688 59.625 324.312 59.3281 325.688 58.7344C327.062 58.1406 328.188 57.3906 329.062 56.4844C329.938 55.5781 330.531 54.6562 330.844 53.7188L330.938 53.4375H343.5L343.359 53.9531C342.984 55.7969 342.25 57.6562 341.156 59.5312C340.062 61.4062 338.578 63.125 336.703 64.6875C334.859 66.25 332.594 67.5 329.906 68.4375C327.25 69.375 324.125 69.8438 320.531 69.8438ZM371.672 69.8438C367.047 69.8438 363.109 69.1719 359.859 67.8281C356.609 66.4844 354.062 64.625 352.219 62.25C350.406 59.8438 349.312 57.0625 348.938 53.9062L348.891 53.4844H362.25L362.344 53.9062C362.781 55.875 363.766 57.4062 365.297 58.5C366.828 59.5938 368.953 60.1406 371.672 60.1406C373.422 60.1406 374.906 59.9375 376.125 59.5312C377.344 59.0938 378.281 58.4844 378.938 57.7031C379.625 56.9219 379.969 55.9844 379.969 54.8906V54.8438C379.969 53.5 379.484 52.4219 378.516 51.6094C377.547 50.7969 375.828 50.1094 373.359 49.5469L364.828 47.7656C361.578 47.0781 358.859 46.0938 356.672 44.8125C354.516 43.5 352.891 41.8906 351.797 39.9844C350.703 38.0469 350.156 35.8281 350.156 33.3281V33.2812C350.156 30.0625 351.016 27.2812 352.734 24.9375C354.453 22.5938 356.891 20.7812 360.047 19.5C363.234 18.1875 366.953 17.5312 371.203 17.5312C375.641 17.5312 379.406 18.25 382.5 19.6875C385.625 21.0938 388.016 23 389.672 25.4062C391.359 27.8125 392.25 30.4844 392.344 33.4219V33.8906H379.734L379.688 33.5156C379.469 31.7031 378.625 30.2031 377.156 29.0156C375.719 27.7969 373.734 27.1875 371.203 27.1875C369.641 27.1875 368.281 27.4062 367.125 27.8438C365.969 28.2812 365.078 28.9062 364.453 29.7188C363.828 30.5 363.516 31.4375 363.516 32.5312V32.5781C363.516 33.4219 363.719 34.1875 364.125 34.875C364.562 35.5312 365.281 36.1094 366.281 36.6094C367.281 37.1094 368.625 37.5469 370.312 37.9219L378.844 39.75C384.125 40.8438 387.906 42.4844 390.188 44.6719C392.5 46.8594 393.656 49.7969 393.656 53.4844V53.5312C393.656 56.8125 392.719 59.6719 390.844 62.1094C388.969 64.5469 386.375 66.4531 383.062 67.8281C379.781 69.1719 375.984 69.8438 371.672 69.8438ZM421.078 69.8438C416.453 69.8438 412.516 69.1719 409.266 67.8281C406.016 66.4844 403.469 64.625 401.625 62.25C399.812 59.8438 398.719 57.0625 398.344 53.9062L398.297 53.4844H411.656L411.75 53.9062C412.188 55.875 413.172 57.4062 414.703 58.5C416.234 59.5938 418.359 60.1406 421.078 60.1406C422.828 60.1406 424.312 59.9375 425.531 59.5312C426.75 59.0938 427.688 58.4844 428.344 57.7031C429.031 56.9219 429.375 55.9844 429.375 54.8906V54.8438C429.375 53.5 428.891 52.4219 427.922 51.6094C426.953 50.7969 425.234 50.1094 422.766 49.5469L414.234 47.7656C410.984 47.0781 408.266 46.0938 406.078 44.8125C403.922 43.5 402.297 41.8906 401.203 39.9844C400.109 38.0469 399.562 35.8281 399.562 33.3281V33.2812C399.562 30.0625 400.422 27.2812 402.141 24.9375C403.859 22.5938 406.297 20.7812 409.453 19.5C412.641 18.1875 416.359 17.5312 420.609 17.5312C425.047 17.5312 428.812 18.25 431.906 19.6875C435.031 21.0938 437.422 23 439.078 25.4062C440.766 27.8125 441.656 30.4844 441.75 33.4219V33.8906H429.141L429.094 33.5156C428.875 31.7031 428.031 30.2031 426.562 29.0156C425.125 27.7969 423.141 27.1875 420.609 27.1875C419.047 27.1875 417.688 27.4062 416.531 27.8438C415.375 28.2812 414.484 28.9062 413.859 29.7188C413.234 30.5 412.922 31.4375 412.922 32.5312V32.5781C412.922 33.4219 413.125 34.1875 413.531 34.875C413.969 35.5312 414.688 36.1094 415.688 36.6094C416.688 37.1094 418.031 37.5469 419.719 37.9219L428.25 39.75C433.531 40.8438 437.312 42.4844 439.594 44.6719C441.906 46.8594 443.062 49.7969 443.062 53.4844V53.5312C443.062 56.8125 442.125 59.6719 440.25 62.1094C438.375 64.5469 435.781 66.4531 432.469 67.8281C429.188 69.1719 425.391 69.8438 421.078 69.8438ZM454.641 46.0781L453.516 1.17188H467.578L466.453 46.0781H454.641ZM460.547 69.375C458.422 69.375 456.609 68.6719 455.109 67.2656C453.641 65.8281 452.906 64.0781 452.906 62.0156C452.906 59.9531 453.641 58.2188 455.109 56.8125C456.609 55.375 458.422 54.6562 460.547 54.6562C462.672 54.6562 464.469 55.375 465.938 56.8125C467.438 58.2188 468.188 59.9531 468.188 62.0156C468.188 64.0781 467.438 65.8281 465.938 67.2656C464.469 68.6719 462.672 69.375 460.547 69.375Z" fill="white"/>
</svg>
