<?xml version="1.0" encoding="UTF-8" standalone="no"?>
<!DOCTYPE svg PUBLIC "-//W3C//DTD SVG 1.1//EN" "http://www.w3.org/Graphics/SVG/1.1/DTD/svg11.dtd">
<svg width="100%" height="100%" viewBox="0 0 800 800" version="1.1" xmlns="http://www.w3.org/2000/svg" xmlns:xlink="http://www.w3.org/1999/xlink" xml:space="preserve" xmlns:serif="http://www.serif.com/" style="fill-rule:evenodd;clip-rule:evenodd;stroke-linecap:round;stroke-linejoin:round;">
    <g transform="matrix(33.333333,0,0,33.333333,0,0)">
        <path d="M18,6L17.199,18.013C17.129,19.065 17.094,19.591 16.867,19.99C16.667,20.341 16.365,20.623 16.001,20.8C15.588,21 15.061,21 14.006,21L9.994,21C8.939,21 8.412,21 7.999,20.8C7.635,20.623 7.333,20.341 7.133,19.99C6.906,19.591 6.871,19.065 6.801,18.013L6,6M4,6L20,6M16,6L15.729,5.188C15.467,4.401 15.336,4.008 15.093,3.717C14.878,3.46 14.602,3.261 14.29,3.139C13.938,3 13.523,3 12.694,3L11.306,3C10.477,3 10.062,3 9.71,3.139C9.398,3.261 9.122,3.46 8.907,3.717C8.664,4.008 8.533,4.401 8.271,5.188L8,6M14,10L14,17M10,10L10,17" style="fill:none;fill-rule:nonzero;stroke:black;stroke-width:2px;"/>
    </g>
    <path d="M131.077,230.667C113.988,229.114 101.376,213.979 102.929,196.89C104.483,179.801 119.618,167.189 136.707,168.742C152.217,170.152 624.467,170.032 666.881,170.032C684.041,170.032 697.972,183.963 697.972,201.122C697.972,218.281 684.041,232.212 666.881,232.212C624.017,232.212 146.752,232.092 131.077,230.667Z"/>
    <path d="M241.516,211.835C241.287,204.818 243.526,196.948 249.461,188.422C254.369,181.371 267.155,170.857 284.763,160.878C286.606,156.591 288.722,152.68 291.06,149.105C303.417,130.214 322.608,118.626 348.444,113.043C375.421,107.214 411.57,108.37 452.835,108.37C474.342,108.37 494.344,116.008 506.691,124.089C514.952,129.496 520.511,135.596 523.592,140.491C532.118,154.037 531.214,166.22 525.583,175.929C532.021,178.095 539.353,180.84 548.016,184.305C554.672,186.967 554.404,187.028 561.092,188.885C572.767,192.128 581.198,201.717 583.334,213.116C583.549,213.231 583.763,213.349 583.978,213.469C592.357,218.154 603.377,227.568 608.596,249.933C612.474,266.546 613.676,295.866 604.635,346.241C599.116,376.991 603.409,399.654 604.446,424.999C605.713,455.988 603.646,490.286 582.981,541.01C552.472,615.895 562.821,622.131 561.881,662.541C561.532,677.533 548.925,698.325 515.515,701.734C466.903,706.694 344.985,683.919 333.145,679.973C330.621,679.131 327.757,678.662 324.72,678.43C324.204,678.411 323.692,678.378 323.182,678.333C317.924,678.068 312.242,678.423 306.942,678.735C306.683,678.75 306.425,678.766 306.167,678.781C300.865,684.462 293.442,688.17 285.084,688.612C275.015,689.145 265.795,684.822 259.725,677.672C249.828,673.856 241.17,666.568 234.189,655.316C226.29,642.583 220.392,622.035 217.31,595.864C208.063,517.323 220.597,376.324 200.83,297.258C194.079,270.251 198.256,269.95 191.616,243.392C187.455,226.745 197.591,209.851 214.238,205.69C224.159,203.21 234.167,205.808 241.516,211.835Z"/>
</svg>
